<svg xmlns="http://www.w3.org/2000/svg" xmlns:xlink="http://www.w3.org/1999/xlink" width="800" zoomAndPan="magnify" viewBox="0 0 600 599.999999" height="800" preserveAspectRatio="xMidYMid meet" version="1.0"><path fill="#0056e9" d="M 190.640625 375.035156 C 190.640625 367.789062 191.792969 362.929688 191.792969 362.929688 C 146.589844 320.515625 195.507812 257.511719 225.671875 306.289062 C 238.675781 298.867188 253.09375 295.15625 266.273438 295.683594 C 265.746094 290.472656 265.480469 272.355469 284.144531 266.347656 C 283.257812 258.394531 285.027344 254.242188 286.621094 252.210938 C 276.269531 217.835938 294.050781 185.40625 323.066406 169.589844 C 303.339844 153.683594 278.660156 144.230469 251.945312 144.230469 C 187.015625 144.230469 134.292969 199.988281 134.292969 268.734375 C 134.382812 313.710938 156.851562 353.121094 190.640625 375.035156 Z M 190.640625 375.035156 " fill-opacity="1" fill-rule="nonzero"/><path fill="#0056e9" d="M 392.417969 264.667969 C 395.78125 260.605469 398.699219 230.03125 392.683594 224.199219 C 375.964844 208.207031 314.308594 201.402344 298.828125 219.164062 C 291.574219 227.46875 290.070312 250.265625 295.289062 257.777344 C 323.863281 299.042969 385.253906 273.152344 392.417969 264.667969 Z M 392.417969 264.667969 " fill-opacity="1" fill-rule="nonzero"/><path fill="#f77f04" d="M 299.003906 120.285156 C 266.71875 120.285156 236.464844 128.855469 210.367188 143.699219 C 223.8125 138.664062 238.234375 135.925781 253.269531 135.925781 C 283.347656 135.925781 310.949219 146.792969 332.707031 164.996094 C 341.910156 161.375 351.992188 159.429688 362.429688 159.429688 C 407.101562 159.429688 434.347656 196.71875 434.347656 229.058594 C 434.347656 240.015625 433.023438 250.882812 429.21875 261.046875 C 465.664062 282.34375 438.683594 345.433594 395.425781 355.59375 C 376.140625 417.800781 317.9375 433.355469 279.101562 417.359375 C 256.542969 473.734375 175.425781 465.253906 207.890625 414.972656 C 198.160156 406.226562 193.738281 395.886719 191.878906 386.699219 C 152.425781 364.078125 125.710938 320.160156 125.710938 269.617188 C 125.710938 262.460938 126.242188 255.480469 127.304688 248.585938 C 122.617188 264.582031 120.050781 281.546875 120.050781 299.042969 C 120.050781 397.742188 200.195312 477.800781 299.003906 477.800781 C 397.816406 477.800781 477.960938 397.742188 477.960938 299.042969 C 477.960938 200.339844 397.816406 120.285156 299.003906 120.285156 Z M 299.003906 120.285156 " fill-opacity="1" fill-rule="nonzero"/><path fill="#585858" d="M 201.433594 352.945312 C 209.75 343.578125 218.859375 340.925781 226.644531 341.015625 C 226.644531 341.015625 220.71875 329.351562 232.570312 312.386719 C 225.582031 315.210938 217.976562 318.925781 209.75 323.605469 C 212.84375 320.339844 219.125 313.710938 219.125 313.710938 C 194.800781 281.988281 171.359375 325.640625 201.433594 352.945312 Z M 201.433594 352.945312 " fill-opacity="1" fill-rule="nonzero"/><path fill="#585858" d="M 342.792969 405.960938 C 368.886719 360.894531 324.304688 337.746094 308.46875 337.214844 C 308.558594 340.574219 308.382812 344.109375 307.851562 347.820312 C 324.128906 350.382812 350.402344 376.359375 334.476562 409.40625 C 337.21875 408.4375 340.050781 407.285156 342.792969 405.960938 Z M 342.792969 405.960938 " fill-opacity="1" fill-rule="nonzero"/><path fill="#585858" d="M 214.878906 443.691406 C 220.277344 448.199219 261.5 438.746094 266.71875 410.820312 C 257.074219 404.28125 249.644531 395.269531 245.664062 384.136719 C 221.78125 404.105469 203.824219 392.882812 203.644531 392.796875 C 206.210938 400.21875 211.253906 408.613281 219.480469 417.800781 C 216.472656 421.777344 211.695312 433.972656 211.605469 435.121094 C 211.519531 436.179688 212.402344 441.570312 214.878906 443.691406 Z M 214.878906 443.691406 " fill-opacity="1" fill-rule="nonzero"/><path fill="#585858" d="M 337.839844 333.679688 C 344.207031 331.117188 348.011719 323.078125 348.011719 322.105469 C 348.011719 321.308594 346.863281 318.039062 345.09375 315.742188 C 344.828125 317.070312 344.207031 318.394531 343.148438 319.632812 C 340.582031 322.722656 335.097656 326.082031 327.578125 326.082031 C 327.046875 326.082031 326.429688 326.082031 325.898438 325.992188 L 306.703125 324.667969 C 307.410156 327.230469 307.851562 329.96875 308.203125 332.796875 C 311.210938 332.886719 314.398438 333.328125 317.757812 334.210938 C 317.671875 334.386719 330.496094 336.597656 337.839844 333.679688 Z M 337.839844 333.679688 " fill-opacity="1" fill-rule="nonzero"/><path fill="#ffffff" d="M 242.390625 377.597656 C 242.390625 375.210938 237.082031 371.5 237.082031 371.5 C 239.914062 371.675781 241.949219 372.558594 243.097656 373.355469 C 242.300781 367.257812 242.390625 360.71875 243.628906 353.738281 C 223.195312 349.320312 198.25 361.78125 202.054688 386.257812 C 217.269531 399.777344 242.390625 379.984375 242.390625 377.597656 Z M 242.390625 377.597656 " fill-opacity="1" fill-rule="nonzero"/><path fill="#ffffff" d="M 425.238281 269.527344 C 417.808594 282.605469 404.890625 293.828125 383.308594 301.339844 C 383.308594 301.339844 360.925781 313.445312 362.34375 324.84375 C 362.34375 324.84375 356.414062 316.890625 364.90625 306.289062 C 336.246094 311.679688 295.203125 305.933594 285.914062 274.917969 C 282.550781 277.21875 273.261719 284.816406 274.945312 296.65625 C 284.941406 298.601562 293.699219 303.195312 299.710938 310.792969 C 300.507812 309.117188 302.632812 305.757812 307.144531 304.078125 C 307.144531 304.078125 304.578125 306.730469 304.3125 309.46875 C 304.3125 309.46875 305.816406 308.230469 307.320312 307.613281 C 308.824219 306.996094 335.539062 307.171875 344.914062 310.617188 C 350.488281 312.648438 352.257812 320.867188 352.082031 323.078125 C 351.902344 324.757812 345.890625 336.332031 338.28125 338.363281 C 335.980469 338.984375 331.824219 338.804688 328.109375 338.453125 C 337.132812 342.957031 345.710938 350.292969 351.195312 360.277344 C 355.089844 358.15625 363.757812 352.238281 364.996094 344.636719 L 365.085938 343.929688 L 365.792969 343.84375 C 365.96875 343.84375 381.183594 341.015625 396.929688 331.382812 C 411.171875 322.722656 428.6875 306.464844 432.226562 278.542969 C 430.722656 275.007812 428.332031 272.003906 425.238281 269.527344 Z M 425.238281 269.527344 " fill-opacity="1" fill-rule="nonzero"/><path fill="#ffffff" d="M 433.730469 282.253906 C 429.128906 308.9375 411.96875 324.578125 397.992188 333.152344 C 383.839844 341.808594 370.039062 344.992188 366.855469 345.699219 C 364.996094 354.179688 356.0625 359.835938 352.167969 362.046875 C 356.945312 371.765625 358.714844 383.960938 355.089844 398.449219 C 367.382812 389.085938 377.46875 375.300781 382.777344 357.273438 C 379.238281 357.183594 375.613281 356.832031 371.984375 356.035156 C 417.1875 347.289062 441.425781 307.171875 433.730469 282.253906 Z M 433.730469 282.253906 " fill-opacity="1" fill-rule="nonzero"/><path fill="#ffffff" d="M 360.308594 172.332031 C 331.824219 172.332031 314.839844 190.269531 300.597656 209.175781 C 343.234375 188.5 400.378906 214.214844 403.742188 219.78125 C 407.367188 225.613281 406.394531 260.871094 401.265625 265.375 C 367.648438 294.710938 313.511719 286.9375 295.203125 268.910156 C 294.582031 279.335938 303.339844 299.308594 345.710938 299.128906 C 381.539062 298.953125 422.054688 283.578125 422.671875 230.207031 C 423.113281 209.972656 406.21875 172.332031 360.308594 172.332031 Z M 360.308594 172.332031 " fill-opacity="1" fill-rule="nonzero"/><path fill="#ffffff" d="M 316.519531 413.207031 C 339.253906 398.804688 333.238281 357.363281 307.320312 351.351562 C 305.90625 359.835938 303.074219 369.378906 298.5625 379.984375 C 308.382812 328.113281 293.253906 294.183594 245.132812 307.96875 C 244.425781 308.410156 225.761719 319.277344 234.871094 341.988281 C 241.152344 343.488281 245.308594 346.140625 245.308594 346.140625 C 246.636719 341.28125 248.496094 336.242188 250.882812 331.117188 C 241.59375 389.085938 278.746094 416.386719 316.519531 413.207031 Z M 316.519531 413.207031 " fill-opacity="1" fill-rule="nonzero"/><path fill="#ffffff" d="M 309 311.148438 C 307.496094 311.414062 303.78125 313.976562 302.542969 314.859375 C 303.960938 317.246094 305.109375 319.894531 306.082031 322.722656 L 325.984375 324.050781 C 333.679688 324.578125 339.167969 321.308594 341.644531 318.304688 C 342.882812 316.804688 343.414062 315.210938 343.148438 313.976562 C 337.925781 311.765625 314.042969 310.441406 309 311.148438 Z M 309 311.148438 " fill-opacity="1" fill-rule="nonzero"/><path fill="#8e8e8e" d="M 383.308594 175.953125 C 358.273438 175.6875 352.433594 178.957031 347.65625 196.71875 C 347.65625 196.71875 322.625 194.863281 304.578125 203.964844 C 286.53125 213.066406 297.945312 212.535156 297.945312 212.535156 C 297.945312 212.535156 335.449219 194.066406 403.742188 219.691406 C 413.5625 225.347656 408.164062 259.542969 403.917969 267.671875 C 399.320312 276.421875 367.648438 290.117188 341.289062 288.4375 C 336.6875 288.175781 334.390625 295.949219 334.832031 299.484375 C 335.273438 303.019531 401.707031 311.238281 421.789062 259.542969 C 441.867188 207.851562 404.890625 176.042969 383.308594 175.953125 Z M 383.308594 175.953125 " fill-opacity="1" fill-rule="nonzero"/><path fill="#8e8e8e" d="M 282.464844 277.570312 C 270.699219 293.828125 295.820312 301.164062 300.953125 295.863281 L 313.246094 300.191406 C 313.246094 300.191406 310.59375 301.074219 307.144531 303.992188 C 303.695312 306.820312 302.101562 312.03125 302.101562 312.03125 C 302.101562 312.03125 285.207031 306.90625 272.023438 297.453125 C 272.113281 297.453125 273.527344 282.605469 282.464844 277.570312 Z M 282.464844 277.570312 " fill-opacity="1" fill-rule="nonzero"/><path fill="#8e8e8e" d="M 302.898438 315.566406 C 302.898438 315.566406 324.214844 316.714844 341.554688 318.394531 C 341.554688 318.394531 339.785156 324.226562 328.109375 325.019531 C 316.433594 325.816406 303.78125 323.34375 303.78125 323.34375 Z M 302.898438 315.566406 " fill-opacity="1" fill-rule="nonzero"/><path fill="#8e8e8e" d="M 300.507812 366.550781 C 298.472656 337.214844 293.609375 314.859375 272.023438 310.085938 C 284.496094 335.269531 224.609375 385.636719 302.457031 413.03125 C 302.457031 413.03125 310.769531 419.746094 320.234375 413.03125 C 329.699219 406.316406 346.597656 364.960938 304.933594 349.320312 Z M 300.507812 366.550781 " fill-opacity="1" fill-rule="nonzero"/><path fill="#8e8e8e" d="M 238.234375 313.886719 C 232.925781 320.335938 239.382812 343.402344 250.882812 331.117188 L 246.195312 348.4375 L 228.679688 344.726562 C 228.769531 344.8125 227.441406 320.867188 238.234375 313.886719 Z M 238.234375 313.886719 " fill-opacity="1" fill-rule="nonzero"/><path fill="#8e8e8e" d="M 242.832031 359.21875 C 242.832031 359.21875 216.296875 359.21875 220.453125 390.941406 C 220.453125 395.886719 244.160156 380.070312 244.160156 380.070312 Z M 242.832031 359.21875 " fill-opacity="1" fill-rule="nonzero"/><path fill="#8e8e8e" d="M 427.007812 271.03125 C 416.921875 307.789062 367.296875 303.636719 365.4375 333.59375 C 365.4375 333.59375 363.402344 330.234375 362.429688 324.757812 L 361.105469 313.355469 C 361.105469 313.355469 353.9375 336.597656 341.730469 336.863281 C 329.433594 337.039062 325.71875 338.277344 325.71875 338.277344 L 350.3125 361.957031 C 350.3125 361.957031 362.960938 356.125 366.855469 344.371094 C 366.855469 344.371094 424.085938 335.09375 433.730469 278.277344 C 434.171875 271.914062 427.007812 271.03125 427.007812 271.03125 Z M 427.007812 271.03125 " fill-opacity="1" fill-rule="nonzero"/><path fill="#8e8e8e" d="M 435.144531 291 C 435.144531 291 424.265625 334.300781 369.597656 349.496094 C 369.597656 349.496094 366.144531 360.894531 352.523438 366.816406 L 356.0625 393.679688 C 356.0625 393.679688 373.84375 376.007812 380.210938 357.007812 C 380.210938 357.007812 440.894531 337.214844 435.144531 291 Z M 435.144531 291 " fill-opacity="1" fill-rule="nonzero"/><path fill="#ffd400" d="M 351.558594 157.90625 C 351.890625 158.378906 352.199219 158.867188 352.476562 159.367188 C 352.757812 159.867188 353 160.367188 353.214844 160.875 C 353.425781 161.382812 353.597656 161.882812 353.734375 162.378906 C 353.871094 162.871094 353.96875 163.351562 354.023438 163.8125 C 354.078125 164.277344 354.09375 164.714844 354.066406 165.128906 C 354.039062 165.542969 353.972656 165.921875 353.863281 166.273438 C 353.757812 166.621094 353.609375 166.929688 353.421875 167.199219 C 353.238281 167.46875 353.015625 167.695312 352.761719 167.875 C 352.503906 168.054688 352.21875 168.1875 351.902344 168.273438 C 351.585938 168.359375 351.242188 168.394531 350.878906 168.378906 C 350.515625 168.363281 350.132812 168.300781 349.734375 168.1875 C 349.332031 168.074219 348.925781 167.914062 348.507812 167.707031 C 348.089844 167.5 347.667969 167.25 347.246094 166.957031 C 346.828125 166.664062 346.414062 166.332031 346.003906 165.964844 C 345.597656 165.59375 345.203125 165.195312 344.824219 164.765625 C 344.445312 164.335938 344.089844 163.886719 343.753906 163.410156 C 343.417969 162.9375 343.113281 162.449219 342.832031 161.949219 C 342.554688 161.449219 342.308594 160.945312 342.097656 160.441406 C 341.886719 159.933594 341.710938 159.433594 341.574219 158.9375 C 341.4375 158.445312 341.34375 157.964844 341.289062 157.503906 C 341.230469 157.039062 341.21875 156.601562 341.242188 156.1875 C 341.269531 155.773438 341.339844 155.394531 341.445312 155.042969 C 341.554688 154.695312 341.703125 154.386719 341.886719 154.117188 C 342.074219 153.847656 342.292969 153.621094 342.550781 153.441406 C 342.808594 153.261719 343.09375 153.128906 343.410156 153.042969 C 343.726562 152.957031 344.066406 152.921875 344.433594 152.9375 C 344.796875 152.953125 345.179688 153.015625 345.578125 153.128906 C 345.976562 153.242188 346.386719 153.402344 346.804688 153.609375 C 347.222656 153.816406 347.640625 154.066406 348.0625 154.359375 C 348.484375 154.652344 348.898438 154.984375 349.304688 155.351562 C 349.714844 155.722656 350.105469 156.121094 350.484375 156.550781 C 350.863281 156.980469 351.222656 157.429688 351.558594 157.90625 Z M 351.558594 157.90625 " fill-opacity="1" fill-rule="nonzero"/><path fill="#ffd400" d="M 404.171875 377.296875 C 404.464844 377.578125 404.71875 377.894531 404.929688 378.253906 C 405.140625 378.609375 405.304688 378.996094 405.425781 379.417969 C 405.542969 379.835938 405.613281 380.277344 405.636719 380.746094 C 405.660156 381.210938 405.632812 381.691406 405.558594 382.1875 C 405.484375 382.683594 405.363281 383.183594 405.191406 383.6875 C 405.023438 384.191406 404.808594 384.691406 404.554688 385.1875 C 404.296875 385.683594 404 386.164062 403.664062 386.632812 C 403.328125 387.097656 402.960938 387.542969 402.5625 387.964844 C 402.160156 388.382812 401.738281 388.773438 401.285156 389.128906 C 400.835938 389.488281 400.371094 389.808594 399.886719 390.089844 C 399.40625 390.371094 398.914062 390.609375 398.417969 390.800781 C 397.921875 390.996094 397.429688 391.140625 396.9375 391.242188 C 396.445312 391.339844 395.964844 391.390625 395.5 391.390625 C 395.03125 391.394531 394.585938 391.34375 394.160156 391.246094 C 393.734375 391.148438 393.339844 391.003906 392.972656 390.8125 C 392.605469 390.617188 392.273438 390.382812 391.980469 390.101562 C 391.683594 389.824219 391.429688 389.503906 391.21875 389.148438 C 391.007812 388.792969 390.84375 388.402344 390.726562 387.984375 C 390.605469 387.5625 390.535156 387.121094 390.511719 386.65625 C 390.492188 386.1875 390.515625 385.707031 390.589844 385.210938 C 390.667969 384.71875 390.789062 384.21875 390.957031 383.710938 C 391.125 383.207031 391.339844 382.707031 391.597656 382.210938 C 391.855469 381.714844 392.148438 381.234375 392.484375 380.769531 C 392.820312 380.300781 393.1875 379.855469 393.589844 379.4375 C 393.988281 379.015625 394.414062 378.628906 394.863281 378.269531 C 395.3125 377.914062 395.78125 377.59375 396.261719 377.3125 C 396.746094 377.03125 397.234375 376.792969 397.730469 376.597656 C 398.226562 376.40625 398.722656 376.257812 399.214844 376.160156 C 399.703125 376.058594 400.183594 376.007812 400.652344 376.007812 C 401.117188 376.007812 401.566406 376.054688 401.992188 376.152344 C 402.417969 376.25 402.8125 376.394531 403.179688 376.589844 C 403.546875 376.78125 403.878906 377.019531 404.171875 377.296875 Z M 404.171875 377.296875 " fill-opacity="1" fill-rule="nonzero"/><path fill="#ffd400" d="M 352.617188 425.769531 C 352.679688 426.191406 352.683594 426.613281 352.636719 427.039062 C 352.589844 427.464844 352.488281 427.890625 352.332031 428.304688 C 352.175781 428.722656 351.972656 429.128906 351.714844 429.523438 C 351.457031 429.914062 351.15625 430.289062 350.808594 430.640625 C 350.460938 430.992188 350.074219 431.320312 349.652344 431.617188 C 349.226562 431.917969 348.769531 432.183594 348.285156 432.417969 C 347.796875 432.652344 347.289062 432.851562 346.757812 433.011719 C 346.230469 433.171875 345.6875 433.289062 345.136719 433.371094 C 344.585938 433.449219 344.03125 433.488281 343.480469 433.484375 C 342.925781 433.480469 342.382812 433.433594 341.851562 433.347656 C 341.316406 433.261719 340.804688 433.136719 340.3125 432.96875 C 339.820312 432.800781 339.355469 432.597656 338.921875 432.359375 C 338.492188 432.117188 338.09375 431.847656 337.738281 431.542969 C 337.382812 431.238281 337.070312 430.90625 336.800781 430.550781 C 336.535156 430.195312 336.316406 429.816406 336.148438 429.421875 C 335.984375 429.027344 335.867188 428.621094 335.808594 428.199219 C 335.746094 427.78125 335.742188 427.359375 335.789062 426.929688 C 335.835938 426.503906 335.9375 426.082031 336.09375 425.664062 C 336.25 425.246094 336.453125 424.839844 336.710938 424.449219 C 336.96875 424.054688 337.269531 423.683594 337.617188 423.332031 C 337.964844 422.976562 338.351562 422.652344 338.773438 422.351562 C 339.199219 422.054688 339.65625 421.785156 340.140625 421.550781 C 340.628906 421.316406 341.136719 421.121094 341.667969 420.960938 C 342.195312 420.800781 342.738281 420.679688 343.289062 420.601562 C 343.839844 420.523438 344.394531 420.484375 344.945312 420.488281 C 345.5 420.492188 346.042969 420.535156 346.574219 420.621094 C 347.109375 420.710938 347.621094 420.835938 348.113281 421.003906 C 348.605469 421.167969 349.070312 421.371094 349.503906 421.613281 C 349.933594 421.851562 350.332031 422.125 350.6875 422.429688 C 351.042969 422.734375 351.355469 423.0625 351.625 423.421875 C 351.890625 423.777344 352.109375 424.152344 352.277344 424.550781 C 352.441406 424.945312 352.558594 425.351562 352.617188 425.769531 Z M 352.617188 425.769531 " fill-opacity="1" fill-rule="nonzero"/><path fill="#ffd400" d="M 299.902344 432.996094 C 299.960938 433.417969 299.976562 433.839844 299.941406 434.265625 C 299.90625 434.6875 299.824219 435.109375 299.695312 435.523438 C 299.566406 435.9375 299.394531 436.335938 299.175781 436.722656 C 298.957031 437.109375 298.699219 437.476562 298.402344 437.824219 C 298.101562 438.167969 297.769531 438.488281 297.402344 438.777344 C 297.035156 439.070312 296.636719 439.328125 296.214844 439.550781 C 295.792969 439.777344 295.351562 439.964844 294.886719 440.113281 C 294.425781 440.265625 293.953125 440.375 293.472656 440.445312 C 292.988281 440.515625 292.503906 440.542969 292.019531 440.527344 C 291.535156 440.515625 291.054688 440.460938 290.585938 440.367188 C 290.117188 440.269531 289.664062 440.132812 289.230469 439.960938 C 288.792969 439.785156 288.386719 439.574219 288 439.324219 C 287.617188 439.078125 287.265625 438.800781 286.945312 438.492188 C 286.628906 438.179688 286.347656 437.847656 286.105469 437.484375 C 285.867188 437.125 285.667969 436.746094 285.515625 436.347656 C 285.359375 435.949219 285.253906 435.542969 285.191406 435.125 C 285.132812 434.703125 285.121094 434.28125 285.152344 433.855469 C 285.1875 433.433594 285.269531 433.011719 285.398438 432.597656 C 285.527344 432.183594 285.699219 431.785156 285.917969 431.398438 C 286.136719 431.011719 286.394531 430.644531 286.691406 430.296875 C 286.992188 429.953125 287.324219 429.632812 287.691406 429.34375 C 288.058594 429.050781 288.457031 428.792969 288.878906 428.570312 C 289.300781 428.34375 289.742188 428.15625 290.207031 428.007812 C 290.667969 427.855469 291.140625 427.746094 291.621094 427.675781 C 292.105469 427.605469 292.589844 427.578125 293.074219 427.59375 C 293.558594 427.605469 294.039062 427.660156 294.507812 427.753906 C 294.976562 427.851562 295.429688 427.988281 295.863281 428.160156 C 296.300781 428.335938 296.710938 428.546875 297.09375 428.796875 C 297.476562 429.042969 297.828125 429.320312 298.148438 429.628906 C 298.46875 429.941406 298.746094 430.273438 298.988281 430.636719 C 299.226562 430.996094 299.425781 431.375 299.578125 431.773438 C 299.734375 432.171875 299.839844 432.578125 299.902344 432.996094 Z M 299.902344 432.996094 " fill-opacity="1" fill-rule="nonzero"/><path fill="#ffd400" d="M 188.578125 390.949219 C 188.921875 391.214844 189.246094 391.503906 189.546875 391.8125 C 189.847656 392.121094 190.121094 392.445312 190.367188 392.785156 C 190.613281 393.128906 190.824219 393.476562 191.003906 393.839844 C 191.183594 394.199219 191.328125 394.5625 191.4375 394.929688 C 191.542969 395.296875 191.613281 395.65625 191.644531 396.015625 C 191.675781 396.371094 191.667969 396.71875 191.621094 397.054688 C 191.574219 397.390625 191.488281 397.707031 191.363281 398.007812 C 191.242188 398.308594 191.082031 398.585938 190.890625 398.839844 C 190.695312 399.089844 190.46875 399.316406 190.210938 399.511719 C 189.953125 399.710938 189.667969 399.875 189.355469 400.007812 C 189.042969 400.140625 188.710938 400.238281 188.359375 400.304688 C 188.003906 400.367188 187.636719 400.394531 187.253906 400.386719 C 186.875 400.378906 186.484375 400.335938 186.089844 400.257812 C 185.695312 400.179688 185.296875 400.066406 184.90625 399.917969 C 184.511719 399.769531 184.125 399.59375 183.75 399.382812 C 183.371094 399.171875 183.007812 398.933594 182.664062 398.671875 C 182.316406 398.40625 181.992188 398.121094 181.691406 397.8125 C 181.390625 397.5 181.117188 397.175781 180.871094 396.835938 C 180.625 396.496094 180.414062 396.144531 180.234375 395.78125 C 180.054688 395.421875 179.910156 395.058594 179.804688 394.691406 C 179.695312 394.324219 179.628906 393.964844 179.597656 393.605469 C 179.566406 393.25 179.574219 392.902344 179.621094 392.566406 C 179.667969 392.230469 179.753906 391.914062 179.875 391.613281 C 180 391.3125 180.15625 391.035156 180.351562 390.785156 C 180.546875 390.53125 180.769531 390.304688 181.027344 390.109375 C 181.285156 389.910156 181.570312 389.746094 181.882812 389.613281 C 182.195312 389.480469 182.527344 389.382812 182.882812 389.316406 C 183.234375 389.253906 183.601562 389.226562 183.984375 389.234375 C 184.367188 389.242188 184.753906 389.285156 185.152344 389.363281 C 185.546875 389.441406 185.941406 389.554688 186.335938 389.703125 C 186.730469 389.851562 187.113281 390.03125 187.492188 390.238281 C 187.867188 390.449219 188.230469 390.6875 188.578125 390.949219 Z M 188.578125 390.949219 " fill-opacity="1" fill-rule="nonzero"/><path fill="#ffd400" d="M 448.414062 188.941406 C 390.828125 111.007812 282.464844 92.363281 200.992188 144.054688 C 247.609375 119.488281 304.222656 122.671875 351.109375 149.972656 C 351.285156 149.621094 351.460938 149.179688 351.726562 148.914062 C 354.382812 145.378906 361.457031 146.175781 367.382812 150.769531 C 373.3125 155.277344 375.964844 161.816406 373.3125 165.347656 C 375.257812 166.941406 377.203125 168.617188 379.0625 170.210938 C 381.449219 169.679688 383.839844 169.324219 386.402344 169.324219 C 408.785156 169.324219 426.917969 193.449219 426.917969 223.226562 C 426.917969 227.558594 426.5625 231.796875 425.769531 235.863281 C 434.4375 256.980469 438.773438 279.074219 438.683594 300.722656 C 440.011719 300.015625 441.515625 299.660156 443.105469 299.75 C 449.296875 299.925781 454.164062 306.640625 453.988281 314.683594 C 453.808594 322.722656 448.503906 329.175781 442.308594 328.996094 C 440.1875 328.910156 438.242188 328.113281 436.648438 326.789062 C 434.4375 340.042969 430.632812 352.855469 425.148438 365.050781 C 426.476562 364.960938 427.804688 365.226562 428.953125 365.933594 C 432.226562 367.964844 432.84375 372.824219 430.367188 376.800781 C 427.890625 380.777344 423.203125 382.28125 419.929688 380.246094 C 419.222656 379.804688 418.601562 379.1875 418.160156 378.570312 C 411.082031 390.675781 402.328125 401.808594 391.710938 411.527344 C 392.332031 411.96875 392.859375 412.589844 393.304688 413.207031 C 395.957031 417.535156 392.683594 424.429688 385.960938 428.582031 C 379.414062 432.648438 372.074219 432.558594 369.152344 428.582031 C 343.148438 444.398438 313.511719 451.113281 283.96875 449.257812 C 283.96875 449.347656 283.96875 449.4375 283.96875 449.523438 C 283.96875 452.617188 280.339844 455.179688 275.917969 455.179688 C 271.496094 455.179688 267.957031 452.617188 267.957031 449.523438 C 267.957031 448.816406 268.132812 448.199219 268.488281 447.582031 C 261.761719 446.519531 255.128906 445.019531 248.582031 443.074219 C 205.238281 458.625 206.828125 436.800781 209.660156 426.019531 C 202.9375 422.042969 196.480469 417.535156 190.199219 412.5 C 190.109375 412.589844 190.023438 412.765625 189.933594 412.855469 C 187.898438 414.886719 183.917969 414.355469 181.175781 411.617188 C 178.609375 409.054688 177.902344 405.429688 179.585938 403.3125 C 172.507812 396.59375 165.785156 389.171875 159.679688 381.132812 C 159.328125 381.574219 158.972656 381.925781 158.441406 382.191406 C 155.347656 384.136719 150.65625 382.101562 148.003906 377.773438 C 145.351562 373.445312 145.703125 368.40625 148.800781 366.464844 C 149.066406 366.285156 149.242188 366.199219 149.507812 366.109375 C 118.902344 316.097656 116.160156 256.539062 138.804688 209 C 103.507812 270.5 105.277344 349.144531 149.773438 409.320312 C 210.015625 490.789062 325.71875 507.492188 408.253906 446.609375 C 490.785156 385.726562 508.65625 270.414062 448.414062 188.941406 Z M 352.167969 143.347656 C 350.488281 145.554688 346.242188 145.203125 342.703125 142.550781 C 339.164062 139.902344 337.664062 135.835938 339.429688 133.628906 C 341.113281 131.417969 345.359375 131.773438 348.898438 134.421875 C 352.433594 137.074219 353.9375 141.050781 352.167969 143.347656 Z M 445.582031 263.34375 C 441.160156 263.253906 437.621094 258.21875 437.796875 252.210938 C 437.976562 246.203125 441.691406 241.429688 446.203125 241.519531 C 450.714844 241.605469 454.164062 246.644531 453.988281 252.652344 C 453.722656 258.660156 450.007812 263.433594 445.582031 263.34375 Z M 167.996094 403.488281 C 166.667969 404.8125 164.28125 404.460938 162.511719 402.691406 C 160.742188 400.925781 160.386719 398.539062 161.714844 397.214844 C 163.042969 395.886719 165.429688 396.242188 167.199219 398.007812 C 168.96875 399.777344 169.324219 402.25 167.996094 403.488281 Z M 311.035156 468.609375 C 304.402344 468.609375 299.003906 464.632812 299.003906 459.6875 C 299.003906 454.738281 304.402344 450.761719 311.035156 450.851562 C 317.671875 450.851562 323.066406 454.828125 323.066406 459.773438 C 323.066406 464.632812 317.671875 468.609375 311.035156 468.609375 Z M 358.363281 452.351562 C 354.910156 452.351562 352.167969 449.523438 352.167969 446.078125 C 352.167969 442.632812 354.910156 439.804688 358.363281 439.804688 C 361.8125 439.804688 364.554688 442.632812 364.554688 446.078125 C 364.554688 449.613281 361.722656 452.351562 358.363281 452.351562 Z M 423.027344 405.960938 C 420.636719 409.761719 416.214844 411.261719 413.03125 409.320312 C 409.933594 407.375 409.316406 402.691406 411.703125 398.890625 C 414.089844 395.09375 418.515625 393.589844 421.699219 395.535156 C 424.796875 397.480469 425.414062 402.160156 423.027344 405.960938 Z M 449.210938 355.859375 C 445.316406 355.769531 442.308594 351.882812 442.488281 347.199219 C 442.574219 342.515625 445.847656 338.804688 449.742188 338.984375 C 453.632812 339.070312 456.640625 342.957031 456.464844 347.640625 C 456.285156 352.238281 453.015625 355.949219 449.210938 355.859375 Z M 449.210938 355.859375 " fill-opacity="1" fill-rule="nonzero"/><path fill="#063982" d="M 369.949219 213.242188 C 376.761719 220.664062 372.515625 243.640625 357.832031 253.445312 C 337.484375 267.054688 296.617188 265.289062 292.195312 241.429688 C 292.195312 241.429688 286.265625 253.800781 296.085938 263.253906 C 305.90625 272.710938 342.351562 302.222656 396.132812 263.253906 C 401.882812 259.632812 396.132812 220.398438 396.132812 220.398438 C 396.132812 220.398438 376.671875 209.707031 369.949219 213.242188 Z M 369.949219 213.242188 " fill-opacity="1" fill-rule="nonzero"/><path fill="#063982" d="M 283.789062 235.6875 C 242.300781 316.097656 120.40625 287.203125 144.730469 217.570312 C 144.730469 217.570312 91.65625 314.859375 193.648438 380.335938 L 197.097656 361.957031 C 163.308594 328.910156 185.777344 274.125 222.574219 310 L 272.023438 299.042969 C 272.023438 299.042969 271.40625 273.152344 288.214844 266.878906 C 288.214844 266.964844 292.722656 243.460938 283.789062 235.6875 Z M 283.789062 235.6875 " fill-opacity="1" fill-rule="nonzero"/><path fill="#303030" d="M 346.417969 317.6875 C 346.417969 317.6875 343.589844 323.695312 336.335938 327.671875 C 331.382812 330.410156 333.328125 334.742188 333.328125 334.742188 C 333.328125 334.742188 344.386719 338.894531 349.425781 322.015625 C 349.425781 322.015625 348.277344 316.097656 346.417969 317.6875 Z M 346.417969 317.6875 " fill-opacity="1" fill-rule="nonzero"/><path fill="#303030" d="M 332.441406 346.757812 C 332.441406 346.757812 329.789062 353.5625 315.902344 350.558594 C 315.902344 350.558594 337.132812 373.179688 336.6875 404.015625 C 336.6875 404.015625 341.730469 403.3125 345.710938 400.21875 C 349.78125 397.300781 364.199219 361.867188 332.441406 346.757812 Z M 332.441406 346.757812 " fill-opacity="1" fill-rule="nonzero"/><path fill="#303030" d="M 246.105469 385.109375 C 246.105469 385.109375 241.328125 392.617188 229.828125 401.191406 C 221.691406 407.285156 236.109375 415.417969 237.96875 425.929688 C 239.03125 432.207031 221.335938 440.070312 212.492188 432.558594 C 212.492188 432.558594 206.121094 438.300781 214.703125 445.546875 C 223.285156 452.792969 264.683594 445.8125 272.023438 409.40625 Z M 246.105469 385.109375 " fill-opacity="1" fill-rule="nonzero"/><path fill="#303030" d="M 209.660156 304.875 C 188.34375 307.347656 192.675781 334.5625 209.75 323.605469 C 209.75 323.605469 219.480469 316.273438 231.066406 313.003906 C 219.039062 323.785156 204.617188 328.996094 200.550781 336.332031 C 197.363281 341.988281 199.398438 349.761719 202.582031 351.796875 C 205.769531 353.828125 227.441406 343.136719 227.441406 343.136719 L 235.933594 308.851562 C 235.84375 308.851562 216.382812 308.144531 209.660156 304.875 Z M 209.660156 304.875 " fill-opacity="1" fill-rule="nonzero"/><path fill="#fcfffe" d="M 319.617188 213.152344 C 326.164062 210.945312 334.300781 209.441406 344.207031 208.914062 C 310.0625 203.699219 297.324219 211.476562 291.398438 231.535156 C 285.472656 251.589844 296.617188 259.542969 296.617188 259.542969 C 294.492188 245.671875 295.378906 233.832031 301.925781 225.082031 C 302.101562 226.496094 302.542969 227.910156 303.429688 229.148438 C 306.523438 233.390625 313.335938 233.742188 318.464844 229.941406 C 323.597656 226.144531 325.277344 219.605469 322.183594 215.363281 C 321.472656 214.480469 320.589844 213.683594 319.617188 213.152344 Z M 319.617188 213.152344 " fill-opacity="1" fill-rule="nonzero"/><path fill="#fcfffe" d="M 332.300781 237.546875 C 332.492188 237.9375 332.648438 238.34375 332.769531 238.757812 C 332.890625 239.171875 332.976562 239.59375 333.027344 240.015625 C 333.074219 240.441406 333.085938 240.859375 333.058594 241.273438 C 333.03125 241.691406 332.96875 242.09375 332.867188 242.484375 C 332.765625 242.878906 332.628906 243.25 332.457031 243.601562 C 332.285156 243.957031 332.082031 244.28125 331.847656 244.582031 C 331.613281 244.882812 331.347656 245.148438 331.058594 245.386719 C 330.769531 245.621094 330.457031 245.820312 330.121094 245.984375 C 329.789062 246.148438 329.4375 246.269531 329.074219 246.355469 C 328.710938 246.4375 328.335938 246.480469 327.953125 246.480469 C 327.570312 246.480469 327.1875 246.441406 326.804688 246.359375 C 326.421875 246.277344 326.042969 246.15625 325.671875 245.996094 C 325.300781 245.832031 324.941406 245.636719 324.597656 245.402344 C 324.253906 245.167969 323.929688 244.898438 323.625 244.601562 C 323.320312 244.300781 323.042969 243.976562 322.789062 243.625 C 322.539062 243.273438 322.316406 242.902344 322.125 242.511719 C 321.933594 242.121094 321.777344 241.714844 321.652344 241.300781 C 321.53125 240.886719 321.445312 240.464844 321.398438 240.042969 C 321.347656 239.617188 321.339844 239.199219 321.363281 238.785156 C 321.390625 238.367188 321.457031 237.964844 321.554688 237.574219 C 321.65625 237.179688 321.792969 236.808594 321.964844 236.457031 C 322.136719 236.101562 322.339844 235.777344 322.574219 235.476562 C 322.8125 235.175781 323.074219 234.910156 323.363281 234.671875 C 323.65625 234.4375 323.96875 234.238281 324.300781 234.074219 C 324.636719 233.910156 324.984375 233.789062 325.351562 233.703125 C 325.714844 233.621094 326.085938 233.578125 326.46875 233.578125 C 326.851562 233.578125 327.234375 233.617188 327.617188 233.699219 C 328.003906 233.78125 328.378906 233.902344 328.75 234.0625 C 329.121094 234.226562 329.480469 234.421875 329.824219 234.65625 C 330.167969 234.890625 330.492188 235.160156 330.796875 235.457031 C 331.101562 235.757812 331.382812 236.082031 331.632812 236.433594 C 331.886719 236.785156 332.109375 237.15625 332.300781 237.546875 Z M 332.300781 237.546875 " fill-opacity="1" fill-rule="nonzero"/><path fill="#fcfffe" d="M 327.929688 326.082031 C 320.5 328.910156 313.511719 327.496094 311.210938 329.351562 C 309.796875 330.5 309.621094 333.503906 309.621094 333.503906 C 309.621094 333.503906 322.800781 338.539062 325.101562 342.25 C 325.101562 342.25 312.714844 338.1875 308.382812 342.25 C 304.046875 346.316406 305.199219 322.988281 305.199219 322.988281 Z M 327.929688 326.082031 " fill-opacity="1" fill-rule="nonzero"/><path fill="#fcfffe" d="M 243.539062 385.816406 C 243.539062 385.816406 231.15625 400.21875 210.8125 398.539062 C 210.8125 398.539062 216.03125 411.175781 221.78125 418.066406 C 221.78125 418.066406 213.90625 431.761719 211.695312 436.359375 C 211.695312 436.359375 210.367188 428.050781 213.109375 420.011719 L 201.609375 390.941406 C 201.609375 390.941406 223.105469 395.179688 243.539062 385.816406 Z M 243.539062 385.816406 " fill-opacity="1" fill-rule="nonzero"/><path fill="#fcfffe" d="M 201.609375 302.664062 C 192.5 304.875 180.027344 328.820312 202.496094 351.796875 L 202.496094 355.507812 C 182.59375 346.316406 175.515625 298.867188 201.609375 302.664062 Z M 201.609375 302.664062 " fill-opacity="1" fill-rule="nonzero"/><path fill="#00103d" d="M 299.003906 103.761719 C 190.996094 103.761719 103.421875 191.238281 103.421875 299.128906 C 103.421875 407.023438 190.996094 494.5 299.003906 494.5 C 407.015625 494.5 494.589844 406.933594 494.589844 299.042969 C 494.589844 191.152344 407.015625 103.761719 299.003906 103.761719 Z M 251.945312 144.230469 C 278.660156 144.230469 303.339844 153.683594 323.066406 169.589844 C 294.050781 185.40625 276.269531 217.925781 286.621094 252.210938 C 285.027344 254.242188 283.257812 258.308594 284.144531 266.347656 C 265.480469 272.269531 265.746094 290.382812 266.273438 295.683594 C 253.183594 295.242188 238.765625 298.867188 225.671875 306.289062 C 195.507812 257.421875 146.589844 320.515625 191.792969 362.929688 C 191.792969 362.929688 190.554688 367.789062 190.640625 375.035156 C 156.851562 353.121094 134.292969 313.710938 134.292969 268.734375 C 134.382812 199.988281 187.015625 144.230469 251.945312 144.230469 Z M 382.777344 357.097656 C 377.46875 375.210938 367.382812 388.90625 355.089844 398.273438 C 358.804688 383.78125 357.035156 371.675781 352.167969 361.867188 C 356.148438 359.746094 365.085938 354.003906 366.855469 345.519531 C 370.039062 344.902344 383.75 341.632812 397.992188 332.972656 C 412.058594 324.402344 429.128906 308.761719 433.730469 282.078125 C 441.425781 306.996094 417.097656 347.113281 371.894531 355.683594 C 375.613281 356.65625 379.148438 357.007812 382.777344 357.097656 Z M 397.019531 331.382812 C 381.273438 341.015625 366.058594 343.753906 365.882812 343.84375 L 365.171875 343.929688 L 365.085938 344.636719 C 363.847656 352.238281 355.265625 358.070312 351.285156 360.277344 C 345.890625 350.292969 337.21875 343.046875 328.195312 338.453125 C 332 338.804688 336.070312 338.984375 338.371094 338.363281 C 345.890625 336.332031 351.992188 324.84375 352.167969 323.078125 C 352.347656 320.867188 350.578125 312.648438 345.003906 310.617188 C 335.539062 307.171875 308.914062 307.082031 307.410156 307.613281 C 305.90625 308.144531 304.402344 309.46875 304.402344 309.46875 C 304.667969 306.730469 307.230469 304.078125 307.230469 304.078125 C 302.632812 305.847656 300.597656 309.117188 299.800781 310.792969 C 293.785156 303.195312 285.027344 298.511719 275.03125 296.65625 C 273.351562 284.816406 282.640625 277.21875 286 274.917969 C 295.289062 305.933594 336.335938 311.765625 364.996094 306.289062 C 356.59375 316.890625 362.429688 324.84375 362.429688 324.84375 C 361.015625 313.445312 383.394531 301.339844 383.394531 301.339844 C 404.980469 293.828125 417.894531 282.605469 425.324219 269.527344 C 428.421875 272.003906 430.722656 275.097656 432.402344 278.542969 C 428.777344 306.464844 411.261719 322.636719 397.019531 331.382812 Z M 307.851562 347.820312 C 308.292969 344.109375 308.46875 340.484375 308.46875 337.214844 C 324.304688 337.746094 368.976562 360.894531 342.792969 405.960938 C 340.050781 407.285156 337.308594 408.4375 334.476562 409.40625 C 350.402344 376.359375 324.128906 350.382812 307.851562 347.820312 Z M 203.644531 392.796875 C 203.824219 392.972656 221.78125 404.105469 245.664062 384.136719 C 249.644531 395.269531 257.074219 404.28125 266.71875 410.820312 C 261.585938 438.746094 220.277344 448.199219 214.878906 443.691406 C 212.316406 441.570312 211.519531 436.183594 211.605469 435.121094 C 211.695312 434.0625 216.5625 421.867188 219.480469 417.800781 C 211.253906 408.613281 206.210938 400.21875 203.644531 392.796875 Z M 219.125 313.710938 C 219.125 313.710938 212.84375 320.339844 209.75 323.605469 C 217.976562 318.925781 225.582031 315.210938 232.570312 312.386719 C 220.71875 329.351562 226.644531 341.015625 226.644531 341.015625 C 218.859375 340.925781 209.75 343.578125 201.433594 352.945312 C 171.359375 325.640625 194.800781 281.988281 219.125 313.710938 Z M 243.539062 353.652344 C 242.300781 360.632812 242.214844 367.171875 243.011719 373.265625 C 241.773438 372.472656 239.738281 371.589844 236.996094 371.410156 C 236.996094 371.410156 242.300781 375.121094 242.300781 377.507812 C 242.300781 379.894531 217.179688 399.777344 201.964844 386.078125 C 198.25 361.691406 223.105469 349.234375 243.539062 353.652344 Z M 250.882812 331.207031 C 248.496094 336.421875 246.636719 341.457031 245.308594 346.226562 C 245.308594 346.226562 241.152344 343.578125 234.871094 342.074219 C 225.761719 319.367188 244.425781 308.410156 245.132812 308.054688 C 293.253906 294.269531 308.382812 328.203125 298.5625 380.070312 C 303.074219 369.46875 305.90625 359.925781 307.320312 351.441406 C 333.152344 357.363281 339.253906 398.890625 316.519531 413.296875 C 278.746094 416.386719 241.59375 389.085938 250.882812 331.207031 Z M 317.671875 334.386719 C 314.308594 333.503906 311.125 332.972656 308.117188 332.972656 C 307.851562 330.058594 307.320312 327.320312 306.613281 324.84375 L 325.808594 326.167969 C 326.429688 326.167969 326.957031 326.257812 327.488281 326.257812 C 335.007812 326.257812 340.492188 322.902344 343.058594 319.808594 C 344.121094 318.480469 344.738281 317.15625 345.003906 315.917969 C 346.773438 318.21875 347.921875 321.488281 347.921875 322.28125 C 347.921875 323.253906 344.121094 331.382812 337.75 333.859375 C 330.496094 336.597656 317.671875 334.386719 317.671875 334.386719 Z M 341.644531 318.394531 C 339.253906 321.308594 333.679688 324.578125 325.984375 324.136719 L 306.082031 322.8125 C 305.109375 319.984375 303.957031 317.332031 302.542969 314.949219 C 303.78125 314.0625 307.496094 311.5 309 311.238281 C 314.042969 310.441406 337.925781 311.855469 343.148438 314.0625 C 343.410156 315.210938 342.882812 316.804688 341.644531 318.394531 Z M 345.800781 299.042969 C 303.339844 299.21875 294.671875 279.25 295.289062 268.824219 C 313.511719 286.847656 367.648438 294.625 401.351562 265.289062 C 406.484375 260.78125 407.457031 225.523438 403.832031 219.691406 C 400.378906 214.125 343.324219 188.5 300.6875 209.089844 C 314.929688 190.179688 331.914062 172.242188 360.394531 172.242188 C 406.308594 172.242188 423.203125 209.882812 422.9375 230.121094 C 422.140625 283.578125 381.625 298.867188 345.800781 299.042969 Z M 298.828125 219.164062 C 314.308594 201.402344 375.964844 208.117188 392.683594 224.199219 C 398.699219 230.03125 395.867188 260.605469 392.417969 264.667969 C 385.34375 273.152344 323.863281 299.042969 295.289062 257.777344 C 290.070312 250.265625 291.574219 227.558594 298.828125 219.164062 Z M 299.003906 477.800781 C 200.195312 477.800781 120.050781 397.742188 120.050781 299.042969 C 120.050781 281.546875 122.617188 264.582031 127.304688 248.585938 C 126.242188 255.390625 125.710938 262.460938 125.710938 269.617188 C 125.710938 320.074219 152.425781 364.078125 191.878906 386.785156 C 193.738281 395.886719 198.160156 406.226562 207.890625 415.0625 C 175.339844 465.339844 256.542969 473.824219 279.101562 417.449219 C 317.847656 433.441406 376.140625 417.890625 395.425781 355.683594 C 438.773438 345.433594 465.664062 282.34375 429.21875 261.132812 C 433.109375 251.0625 434.347656 240.105469 434.347656 229.148438 C 434.347656 196.894531 407.101562 159.515625 362.429688 159.515625 C 351.992188 159.515625 341.910156 161.550781 332.707031 165.085938 C 310.945312 146.882812 283.257812 136.011719 253.269531 136.011719 C 238.234375 136.011719 223.726562 138.753906 210.367188 143.789062 C 236.550781 128.855469 266.804688 120.371094 299.003906 120.371094 C 397.816406 120.371094 477.960938 200.429688 477.960938 299.128906 C 477.960938 397.832031 397.816406 477.800781 299.003906 477.800781 Z M 299.003906 477.800781 " fill-opacity="1" fill-rule="nonzero"/><path fill="#ffffff" d="M 257.960938 212.535156 C 257.960938 212.535156 255.925781 210.855469 252.828125 210.503906 C 251.324219 210.324219 250.085938 209.089844 249.910156 207.585938 C 249.46875 204.496094 247.875 202.460938 247.875 202.460938 C 247.875 202.460938 246.195312 204.496094 245.839844 207.585938 C 245.664062 209.089844 244.425781 210.324219 242.921875 210.503906 C 239.824219 210.945312 237.789062 212.535156 237.789062 212.535156 C 237.789062 212.535156 239.824219 214.214844 242.921875 214.566406 C 244.425781 214.746094 245.664062 215.980469 245.839844 217.484375 C 246.28125 220.578125 247.875 222.609375 247.875 222.609375 C 247.875 222.609375 249.554688 220.578125 249.910156 217.484375 C 250.085938 215.980469 251.324219 214.746094 252.828125 214.566406 C 255.835938 214.214844 257.960938 212.535156 257.960938 212.535156 Z M 257.960938 212.535156 " fill-opacity="1" fill-rule="nonzero"/><path fill="#ffffff" d="M 201.609375 241.519531 C 201.609375 241.519531 200.019531 240.191406 197.542969 239.925781 C 196.304688 239.75 195.417969 238.777344 195.242188 237.628906 C 194.886719 235.246094 193.648438 233.566406 193.648438 233.566406 C 193.648438 233.566406 192.324219 235.15625 192.058594 237.628906 C 191.878906 238.867188 190.90625 239.75 189.757812 239.925781 C 187.367188 240.28125 185.6875 241.519531 185.6875 241.519531 C 185.6875 241.519531 187.28125 242.84375 189.757812 243.109375 C 190.996094 243.285156 191.878906 244.257812 192.058594 245.40625 C 192.410156 247.792969 193.648438 249.472656 193.648438 249.472656 C 193.648438 249.472656 194.976562 247.878906 195.242188 245.40625 C 195.417969 244.167969 196.390625 243.285156 197.542969 243.109375 C 200.019531 242.753906 201.609375 241.519531 201.609375 241.519531 Z M 201.609375 241.519531 " fill-opacity="1" fill-rule="nonzero"/><path fill="#ffffff" d="M 213.375 194.773438 C 213.375 194.773438 212.226562 193.800781 210.457031 193.625 C 209.570312 193.539062 208.863281 192.832031 208.777344 191.945312 C 208.511719 190.179688 207.625 189.03125 207.625 189.03125 C 207.625 189.03125 206.652344 190.179688 206.476562 191.945312 C 206.386719 192.832031 205.679688 193.539062 204.796875 193.625 C 203.027344 193.890625 201.875 194.773438 201.875 194.773438 C 201.875 194.773438 203.027344 195.746094 204.796875 195.921875 C 205.679688 196.011719 206.386719 196.71875 206.476562 197.601562 C 206.742188 199.367188 207.625 200.519531 207.625 200.519531 C 207.625 200.519531 208.597656 199.367188 208.777344 197.601562 C 208.863281 196.71875 209.570312 196.011719 210.457031 195.921875 C 212.226562 195.746094 213.375 194.773438 213.375 194.773438 Z M 213.375 194.773438 " fill-opacity="1" fill-rule="nonzero"/></svg>